<svg width="32" height="32" viewBox="0 0 32 32" fill="none" xmlns="http://www.w3.org/2000/svg">
<path d="M16 32C24.8366 32 32 24.8366 32 16C32 7.16344 24.8366 0 16 0C7.16344 0 0 7.16344 0 16C0 24.8366 7.16344 32 16 32Z" fill="white" fill-opacity="0.5"/>
<path d="M16 16C16 14.5281 17.1937 13.3344 18.6656 13.3344C20.1375 13.3344 21.3312 14.5281 21.3312 16C21.3312 17.4719 20.1375 18.6656 18.6656 18.6656C17.1937 18.6656 16 17.4719 16 16ZM10.6656 21.3344C10.6656 19.8625 11.8594 18.6688 13.3312 18.6688H16V21.3344C16 22.8063 14.8062 24 13.3344 24C11.8625 24 10.6656 22.8063 10.6656 21.3344V21.3344ZM16 8V13.3344H18.6656C20.1375 13.3344 21.3312 12.1406 21.3312 10.6687C21.3312 9.19687 20.1406 8 18.6656 8H16ZM10.6656 10.6656C10.6656 12.1375 11.8594 13.3313 13.3312 13.3313H16V8H13.3344C11.8594 8 10.6656 9.19375 10.6656 10.6656V10.6656ZM10.6656 16C10.6656 17.4719 11.8594 18.6656 13.3312 18.6656H16V13.3344H13.3344C11.8594 13.3344 10.6656 14.5281 10.6656 16V16Z" fill="#090E16"/>
</svg>
