<svg width="33" height="33" viewBox="0 0 33 33" fill="none" xmlns="http://www.w3.org/2000/svg">
<path fill-rule="evenodd" clip-rule="evenodd" d="M16.4047 0.5C7.3411 0.5 0 7.8411 0 16.9047C0 24.1638 4.69585 30.295 11.2167 32.4687C12.0369 32.6122 12.3445 32.1201 12.3445 31.6894C12.3445 31.2998 12.324 30.008 12.324 28.6341C8.20235 29.3928 7.13605 27.6293 6.80795 26.7065C6.6234 26.2349 5.82367 24.779 5.12647 24.3893C4.5523 24.0818 3.73207 23.323 5.10596 23.3025C6.39783 23.282 7.3206 24.4919 7.62819 24.984C9.10461 27.4652 11.4628 26.768 12.4061 26.3374C12.5496 25.2711 12.9802 24.5534 13.4519 24.1433C9.80181 23.7332 5.98772 22.3183 5.98772 16.0435C5.98772 14.2594 6.6234 12.783 7.6692 11.6347C7.50515 11.2246 6.93099 9.54309 7.83325 7.28744C7.83325 7.28744 9.20714 6.85682 12.3445 8.96893C13.6569 8.59982 15.0513 8.41527 16.4457 8.41527C17.8401 8.41527 19.2345 8.59982 20.5469 8.96893C23.6843 6.83632 25.0582 7.28744 25.0582 7.28744C25.9604 9.54309 25.3863 11.2246 25.2222 11.6347C26.268 12.783 26.9037 14.2389 26.9037 16.0435C26.9037 22.3388 23.0691 23.7332 19.4191 24.1433C20.0137 24.6559 20.5264 25.6402 20.5264 27.1781C20.5264 29.3723 20.5059 31.1358 20.5059 31.6894C20.5059 32.1201 20.8135 32.6327 21.6337 32.4687C28.1136 30.295 32.8094 24.1433 32.8094 16.9047C32.8094 7.8411 25.4683 0.5 16.4047 0.5Z" fill="#4AE290"/>
</svg>
