<svg width="721" height="721" viewBox="0 0 721 721" fill="none" xmlns="http://www.w3.org/2000/svg">
<path d="M626 340.099C626 181.144 497.058 52.2858 338 52.2858C178.942 52.2858 50 181.144 50 340.099C50 499.054 178.942 627.912 338 627.912C497.058 627.912 626 499.054 626 340.099Z" fill="#7B4AE2" fill-opacity="0.2"/>
<g filter="url(#filter0_d_21_4106)">
<circle cx="631" cy="364" r="40" fill="#090E16"/>
</g>
<g clip-path="url(#clip0_21_4106)">
<path fill-rule="evenodd" clip-rule="evenodd" d="M647.875 344H614.125C612.399 344 611 345.399 611 347.125V380.875C611 382.601 612.399 384 614.125 384H647.875C649.601 384 651 382.601 651 380.875V347.125C651 345.399 649.601 344 647.875 344ZM634.518 379.64V375.324C635.301 375.981 636.152 376.473 637.07 376.801C637.987 377.129 638.914 377.293 639.85 377.293C640.399 377.293 640.878 377.244 641.287 377.145C641.697 377.046 642.039 376.909 642.313 376.734C642.588 376.558 642.792 376.351 642.927 376.113C643.062 375.875 643.13 375.616 643.13 375.338C643.13 374.96 643.022 374.623 642.806 374.326C642.59 374.03 642.295 373.755 641.922 373.504C641.548 373.252 641.105 373.009 640.592 372.775C640.079 372.542 639.526 372.303 638.932 372.061C637.42 371.431 636.293 370.662 635.551 369.755C634.809 368.846 634.438 367.75 634.438 366.464C634.438 365.457 634.64 364.592 635.045 363.868C635.45 363.144 636.001 362.548 636.698 362.081C637.396 361.613 638.203 361.269 639.121 361.049C640.039 360.829 641.011 360.719 642.036 360.719C643.044 360.719 643.937 360.779 644.716 360.901C645.494 361.022 646.212 361.209 646.868 361.46V365.493C646.545 365.268 646.191 365.07 645.809 364.9C645.426 364.729 645.033 364.587 644.628 364.475C644.223 364.362 643.82 364.279 643.42 364.225C643.02 364.171 642.639 364.144 642.279 364.144C641.785 364.144 641.335 364.191 640.93 364.286C640.525 364.38 640.183 364.513 639.904 364.684C639.625 364.855 639.409 365.059 639.256 365.297C639.103 365.536 639.027 365.803 639.027 366.1C639.027 366.423 639.112 366.713 639.283 366.97C639.454 367.226 639.697 367.469 640.012 367.698C640.327 367.927 640.709 368.152 641.159 368.372C641.609 368.592 642.117 368.819 642.684 369.053C643.458 369.377 644.153 369.721 644.77 370.085C645.386 370.449 645.915 370.86 646.355 371.319C646.796 371.777 647.134 372.301 647.368 372.89C647.602 373.479 647.719 374.165 647.719 374.947C647.719 376.026 647.514 376.931 647.105 377.664C646.695 378.397 646.14 378.99 645.438 379.444C644.736 379.898 643.919 380.224 642.988 380.422C642.057 380.62 641.074 380.719 640.039 380.719C638.977 380.719 637.967 380.629 637.009 380.449C636.05 380.269 635.22 380 634.518 379.64ZM632.875 364.585H627.325V380.406H622.929V364.585H617.406V361.031H632.875V364.585Z" fill="#7B4AE2" fill-opacity="0.5"/>
</g>
<g filter="url(#filter1_d_21_4106)">
<circle cx="90" cy="262" r="40" fill="#090E16"/>
</g>
<path d="M104.965 254.965C104.498 254.804 104.015 254.652 103.517 254.509C103.599 254.175 103.674 253.845 103.741 253.522C104.837 248.204 104.12 243.92 101.674 242.509C99.3289 241.157 95.4932 242.567 91.6194 245.938C91.2468 246.262 90.8733 246.605 90.4999 246.965C90.2511 246.727 90.0027 246.497 89.7549 246.277C85.695 242.672 81.6256 241.153 79.182 242.568C76.8389 243.924 76.145 247.952 77.1312 252.992C77.2264 253.478 77.3377 253.975 77.4636 254.481C76.8876 254.644 76.3316 254.819 75.7996 255.004C71.0398 256.664 68 259.264 68 261.962C68 264.748 71.2633 267.543 76.221 269.238C76.6122 269.371 77.0182 269.498 77.4365 269.618C77.3007 270.164 77.1826 270.7 77.0835 271.223C76.1432 276.175 76.8775 280.107 79.2144 281.455C81.6282 282.847 85.6792 281.416 89.6239 277.968C89.9356 277.696 90.2485 277.407 90.562 277.104C90.9683 277.495 91.3739 277.865 91.7774 278.212C95.5983 281.5 99.372 282.828 101.707 281.476C104.118 280.08 104.902 275.856 103.884 270.717C103.807 270.324 103.716 269.923 103.615 269.515C103.899 269.431 104.178 269.344 104.451 269.254C109.605 267.546 112.958 264.786 112.958 261.962C112.958 259.255 109.82 256.636 104.965 254.965ZM103.847 267.431C103.601 267.512 103.349 267.591 103.092 267.667C102.523 265.866 101.755 263.95 100.815 261.971C101.712 260.04 102.45 258.149 103.003 256.359C103.463 256.492 103.909 256.633 104.339 256.781C108.5 258.213 111.038 260.33 111.038 261.962C111.038 263.7 108.297 265.956 103.847 267.431ZM102 271.09C102.45 273.362 102.514 275.417 102.216 277.023C101.949 278.467 101.41 279.429 100.744 279.814C99.3275 280.634 96.2976 279.568 93.03 276.756C92.6554 276.434 92.278 276.09 91.8995 275.726C93.1663 274.34 94.4324 272.73 95.6681 270.941C97.8415 270.748 99.8948 270.433 101.757 270.002C101.849 270.372 101.93 270.735 102 271.09ZM83.3273 279.673C81.943 280.161 80.8405 280.175 80.174 279.791C78.7559 278.973 78.1664 275.816 78.9705 271.581C79.0626 271.096 79.1723 270.597 79.2986 270.088C81.1403 270.495 83.1786 270.788 85.3572 270.965C86.6012 272.715 87.9039 274.324 89.2166 275.733C88.9298 276.01 88.6441 276.274 88.36 276.522C86.6157 278.047 84.8677 279.129 83.3273 279.673ZM76.8421 267.42C74.6499 266.671 72.8395 265.697 71.5986 264.634C70.4835 263.679 69.9205 262.731 69.9205 261.962C69.9205 260.325 72.3612 258.237 76.4318 256.818C76.9257 256.646 77.4428 256.483 77.9793 256.331C78.5419 258.161 79.2799 260.074 80.1705 262.009C79.2684 263.972 78.5199 265.916 77.9518 267.768C77.5693 267.658 77.1987 267.542 76.8421 267.42ZM79.016 252.623C78.1711 248.305 78.7322 245.047 80.1443 244.23C81.6483 243.359 84.9742 244.601 88.4797 247.713C88.7037 247.912 88.9287 248.121 89.1543 248.336C87.848 249.739 86.5573 251.335 85.3244 253.075C83.2099 253.271 81.1859 253.586 79.325 254.008C79.2081 253.537 79.1044 253.075 79.016 252.623ZM98.4089 257.411C97.9641 256.643 97.5074 255.893 97.0418 255.163C98.4762 255.344 99.8506 255.585 101.141 255.88C100.754 257.121 100.271 258.42 99.7023 259.751C99.2945 258.977 98.8631 258.196 98.4089 257.411ZM90.5005 249.709C91.3864 250.668 92.2736 251.74 93.1462 252.902C92.2668 252.861 91.3766 252.839 90.4791 252.839C89.59 252.839 88.7064 252.86 87.8325 252.901C88.706 251.749 89.6008 250.679 90.5005 249.709ZM82.5415 257.425C82.0971 258.195 81.6738 258.972 81.2724 259.749C80.7131 258.423 80.2346 257.119 79.8438 255.859C81.1265 255.572 82.4944 255.338 83.9197 255.16C83.4475 255.896 82.9871 256.652 82.5415 257.424V257.425ZM83.9607 268.902C82.4881 268.737 81.0997 268.515 79.8173 268.236C80.2144 266.954 80.7034 265.622 81.2745 264.267C81.677 265.044 82.102 265.821 82.5491 266.593H82.5492C83.0046 267.379 83.4764 268.15 83.9607 268.902ZM90.5537 274.351C89.6434 273.369 88.7354 272.283 87.8487 271.114C88.7095 271.148 89.5871 271.165 90.4791 271.165C91.3954 271.165 92.3013 271.144 93.193 271.105C92.3175 272.294 91.4335 273.382 90.5537 274.351ZM99.7206 264.197C100.322 265.567 100.828 266.892 101.23 268.152C99.9267 268.45 98.5193 268.689 97.0365 268.867C97.5032 268.128 97.9639 267.365 98.4166 266.58C98.8746 265.785 99.3094 264.99 99.7206 264.197ZM96.753 265.62C96.0502 266.839 95.3287 268.002 94.5962 269.1C93.2621 269.195 91.8838 269.244 90.4791 269.244C89.08 269.244 87.7191 269.201 86.4086 269.116C85.6466 268.003 84.9094 266.837 84.2111 265.631H84.2113C83.5148 264.428 82.8738 263.215 82.293 262.008C82.8737 260.799 83.513 259.585 84.2054 258.384L84.2053 258.384C84.8996 257.18 85.6303 256.019 86.3852 254.914C87.7223 254.813 89.0934 254.76 90.479 254.76H90.4791C91.871 254.76 93.2438 254.813 94.5804 254.915C95.3239 256.012 96.0496 257.17 96.7466 258.374C97.4516 259.591 98.0991 260.798 98.6848 261.981C98.1009 263.184 97.4548 264.403 96.753 265.62ZM100.715 244.173C102.22 245.041 102.806 248.543 101.86 253.134C101.8 253.427 101.732 253.725 101.658 254.028C99.7927 253.597 97.7673 253.277 95.6467 253.078C94.4113 251.319 93.1312 249.72 91.8462 248.335C92.1917 248.003 92.5367 247.686 92.8802 247.387C96.1993 244.498 99.3015 243.358 100.715 244.173ZM90.4791 257.948C92.6963 257.948 94.4937 259.745 94.4937 261.962C94.4937 264.179 92.6963 265.977 90.4791 265.977C88.2619 265.977 86.4645 264.179 86.4645 261.962C86.4645 259.745 88.2619 257.948 90.4791 257.948Z" fill="#7B4AE2" fill-opacity="0.5"/>
<g filter="url(#filter2_d_21_4106)">
<circle cx="90" cy="518" r="40" fill="#090E16"/>
</g>
<g clip-path="url(#clip1_21_4106)">
<path fill-rule="evenodd" clip-rule="evenodd" d="M83.3854 498C79.7054 498 76.7188 500.987 76.7188 504.667C76.7188 508.347 79.7054 511.333 83.3854 511.333C79.7054 511.333 76.7188 514.32 76.7188 518C76.7188 521.68 79.7054 524.667 83.3854 524.667C79.7054 524.667 76.7188 527.653 76.7188 531.333C76.7188 535.013 79.7054 538 83.3854 538C87.0654 538 90.0521 535.013 90.0521 531.333L90.0521 518C90.0521 521.68 93.0388 524.667 96.7188 524.667C100.399 524.667 103.385 521.68 103.385 518C103.385 514.32 100.399 511.333 96.7188 511.333C100.399 511.333 103.385 508.347 103.385 504.667C103.385 500.987 100.399 498 96.7188 498H83.3854ZM96.7188 511.333H90.0521L90.0521 518C90.0521 514.32 93.0388 511.333 96.7188 511.333Z" fill="#7B4AE2" fill-opacity="0.5"/>
</g>
<g filter="url(#filter3_f_21_4106)">
<circle cx="340" cy="335" r="285" fill="#7B4AE2" fill-opacity="0.2"/>
</g>
<g filter="url(#filter4_i_21_4106)">
<path fill-rule="evenodd" clip-rule="evenodd" d="M287.514 445.937C328.57 467.821 374.609 465.39 410.681 445.935V493.876L411.088 493.865V522.013H287.514V445.937Z" fill="#BB7D52"/>
<path fill-rule="evenodd" clip-rule="evenodd" d="M287.513 485.882C328.568 507.767 374.608 505.335 410.681 485.882V516.454L438.419 515.763L438.763 515.776C438.763 589.465 262.594 600.495 262.594 515.665L263.282 515.634L287.513 515.757V485.882V485.882Z" fill="#D08B5B"/>
<path fill-rule="evenodd" clip-rule="evenodd" d="M215.391 183.033C313.367 120.649 438.711 142.833 481.06 183.97C493.304 213.432 494.169 241.851 490.567 272.355C498.839 266.42 508.674 267.778 516.425 273.306C519.564 298.618 527.974 348.691 490.287 350.863C477.312 512.389 239.577 532.494 207.441 351.392C170.088 350.103 180.16 299.497 182.494 275.196C191.456 268.378 201.689 271.809 208.041 274.859L215.391 183.033V183.033Z" fill="#D08B5B"/>
<path fill-rule="evenodd" clip-rule="evenodd" d="M200.838 251.438C201.353 252.852 199.681 254.266 194.664 256.837C184.28 262.023 183.37 263.102 183.343 271.225V271.618C183.343 282.543 185.016 285.369 192.219 286.399C199.552 287.427 204.183 289.097 205.47 291.154C205.984 292.053 206.499 296.167 206.499 300.408C206.499 309.534 209.328 322.387 212.802 329.07C222.579 348.093 248.048 357.733 278.921 354.134C294.101 352.206 302.977 349.25 312.625 342.823C327.033 333.184 333.721 320.845 334.75 301.437C335.522 289.611 335.522 289.611 339.382 288.326C344.399 286.527 356.877 286.527 362.023 288.326C366.009 289.74 366.009 289.74 366.009 298.866C366.009 309.405 368.711 322.002 372.313 329.072C382.089 348.093 407.56 357.733 438.304 354.134C453.612 352.207 462.488 349.25 472.136 342.824C486.543 333.185 493.233 320.46 494.519 300.537C495.419 287.427 494.777 288.07 508.927 286.27C516.13 285.371 517.803 282.543 517.803 271.489C517.803 262.749 516.387 261.079 504.424 255.937L497.22 252.852L486.028 249.383L477.796 247.583C473.294 246.684 467.505 245.911 465.06 245.783C462.488 245.783 456.057 243.469 449.625 240.257C438.947 234.987 438.433 234.858 425.827 234.858C411.419 234.858 401.257 237.815 393.023 244.242C390.579 246.169 385.434 248.611 381.832 249.51C378.101 250.411 371.155 252.853 366.395 254.909C353.918 260.179 347.486 259.922 331.535 253.495C324.589 250.669 318.028 248.354 317.128 248.354C316.226 248.354 313.268 246.555 310.567 244.37C302.077 237.686 292.557 234.858 277.892 234.858C265.415 234.858 264.643 235.115 253.581 240.386C246.119 243.984 240.33 245.783 236.857 245.783C234.026 245.911 227.852 246.684 223.221 247.712L200.838 251.438V251.438ZM303.748 268.019C319.184 273.032 323.943 279.843 324.072 297.066C324.201 306.193 323.688 309.149 321.243 314.161C312.754 331.512 288.569 341.282 259.882 339.096C237.886 337.297 226.565 331.128 220.52 317.503C216.66 308.635 216.146 287.427 219.747 280.871C223.092 274.702 229.525 270.461 240.072 267.633C248.306 265.448 252.808 265.191 273.389 265.448C291.141 265.833 298.86 266.476 303.748 268.019V268.019ZM463.259 268.019C478.696 273.032 483.455 279.843 483.585 297.066C483.713 306.193 483.198 309.149 480.754 314.161C472.264 331.512 448.079 341.282 419.393 339.096C397.396 337.297 386.076 331.128 380.03 317.503C376.17 308.635 375.657 287.427 379.258 280.871C382.603 274.702 389.035 270.461 399.583 267.633C407.816 265.448 412.318 265.191 432.9 265.448C450.652 265.833 458.37 266.476 463.259 268.019V268.019Z" fill="#A66F49"/>
<path fill-rule="evenodd" clip-rule="evenodd" d="M316.097 57.3973L307.993 62.6675L303.876 58.6827C297.445 52.3851 294.357 53.5419 289.469 63.9529C286.511 70.3791 282.781 71.1508 276.349 66.9088C273.776 65.1097 270.56 63.5671 269.273 63.5671C266.444 63.5671 263.742 67.937 262.584 73.7209C261.684 78.4766 258.597 82.8465 256.024 82.8465C255.123 82.8465 251.778 81.6897 248.563 80.2757C243.674 78.0907 242.13 77.9621 239.429 79.1189C236.342 80.5329 236.085 81.3039 236.085 89.7871C236.085 95.9569 235.184 100.713 233.512 104.312C231.068 109.71 230.939 109.838 224.893 109.838C214.859 109.838 210.1 114.85 214.988 120.378C217.561 123.077 215.888 125.905 210.872 127.061C201.609 129.375 198.908 135.287 203.925 141.585C207.399 146.083 207.27 146.727 201.738 149.297C195.95 152.125 195.05 155.338 198.78 159.323C201.609 162.408 201.609 162.536 200.066 179.502C198.523 195.954 199.037 241.84 200.838 246.595C201.353 248.009 199.681 249.423 194.664 251.994C184.115 257.264 183.343 258.292 183.343 266.775C183.343 277.7 185.016 280.528 192.22 281.556C199.552 282.584 204.183 284.255 205.47 286.312C205.984 287.211 206.498 291.324 206.498 295.566C206.498 304.692 209.328 317.545 212.802 324.228C222.578 343.251 248.048 352.89 278.922 349.292C294.101 347.364 302.977 344.408 312.625 337.982C327.032 328.342 333.721 316.002 334.751 296.594C335.522 284.769 335.522 284.769 339.382 283.484C344.399 281.685 356.876 281.685 362.022 283.484C366.01 284.898 366.01 284.898 366.01 294.024C366.01 304.564 368.711 317.16 372.313 324.229C382.09 343.252 407.56 352.891 438.304 349.293C453.612 347.365 462.488 344.409 472.136 337.982C486.544 328.342 493.233 315.618 494.519 295.695C495.419 282.585 494.777 283.228 508.927 281.428C516.131 280.529 517.803 277.701 517.803 266.647C517.803 257.907 516.387 256.236 504.424 251.095L497.22 248.01V235.157C497.092 213.178 494.004 197.626 488.601 192.613C486.8 190.943 482.813 188.372 479.597 186.829C474.58 184.387 473.551 184.259 472.008 185.93C470.464 187.473 470.85 188.887 474.709 196.598C479.468 206.11 483.713 222.176 485.128 236.057L486.029 244.541L477.796 242.741C473.293 241.841 467.505 241.07 465.06 240.942C462.488 240.942 456.056 238.628 449.624 235.415C438.947 230.145 438.433 230.016 425.827 230.016C411.418 230.016 401.256 232.973 393.024 239.399C390.579 241.327 385.434 243.769 381.832 244.669C378.102 245.569 371.155 248.011 366.395 250.067C353.918 255.337 347.486 255.08 331.534 248.653C324.588 245.826 318.028 243.512 317.127 243.512C316.227 243.512 313.268 241.713 310.566 239.528C302.077 232.844 292.557 230.016 277.892 230.016C265.415 230.016 264.643 230.273 253.58 235.543C246.118 239.142 240.33 240.942 236.857 240.942C234.027 241.07 227.852 241.841 223.222 242.869C210.1 245.697 211.129 247.368 212.158 225.775C212.93 207.266 215.374 191.586 218.205 186.187C221.421 180.146 246.891 167.164 272.104 158.682C303.363 148.271 338.481 144.286 378.102 146.985C412.062 149.17 421.067 151.997 458.629 172.177C471.75 179.246 483.971 184.902 486.8 185.288C491.432 185.93 491.817 185.673 493.232 181.816C496.32 172.948 493.876 150.583 488.73 140.43C484.871 132.975 484.614 130.147 486.8 122.436C488.344 117.037 488.344 115.88 486.415 113.053C484.614 110.353 483.327 109.84 478.182 109.84C474.838 109.968 469.692 110.482 466.733 110.996C461.459 112.025 461.33 112.025 461.974 108.683C464.546 96.087 461.459 93.2589 448.981 96.4721C444.993 97.5002 441.263 98.1433 441.005 97.7574C440.62 97.3723 441.005 93.5162 441.906 89.2749C443.449 82.3342 443.321 81.1774 441.52 79.249C439.59 77.4499 438.433 77.4499 430.971 78.8639C419.009 81.306 414.506 80.1493 410.132 73.4651C405.63 66.9102 401.513 64.5967 397.269 66.2672C394.953 67.1667 392.509 66.7816 387.878 64.7253C382.989 62.669 380.159 62.1545 375.786 62.7968C371.284 63.5685 368.839 63.0541 364.594 60.8691C360.221 58.6842 357.776 58.2983 352.502 58.9407C346.842 59.5837 344.784 59.0693 338.224 55.8562C334.107 53.7998 329.219 52.1286 327.418 52C325.617 52 320.6 54.4422 316.098 57.3988L316.097 57.3973V57.3973ZM303.748 263.176C319.185 268.189 323.944 275.001 324.073 292.224C324.202 301.35 323.687 304.306 321.243 309.319C312.753 326.67 288.569 336.439 259.882 334.254C237.886 332.455 226.565 326.285 220.52 312.66C216.66 303.792 216.146 282.584 219.748 276.029C223.092 269.86 229.524 265.618 240.072 262.79C248.306 260.605 252.808 260.348 273.389 260.605C291.141 260.991 298.86 261.634 303.748 263.176V263.176ZM463.259 263.176C478.696 268.189 483.455 275.001 483.584 292.224C483.712 301.35 483.198 304.306 480.754 309.319C472.264 326.67 448.08 336.439 419.393 334.254C397.396 332.455 386.076 326.285 380.031 312.66C376.171 303.792 375.656 282.584 379.258 276.029C382.603 269.86 389.035 265.618 399.583 262.79C407.816 260.605 412.319 260.348 432.9 260.605C450.652 260.991 458.37 261.634 463.259 263.176V263.176Z" fill="#2C1B18"/>
<path fill-rule="evenodd" clip-rule="evenodd" d="M262.327 278.729C255.509 281.942 247.661 290.039 247.661 293.895C247.661 296.851 249.72 296.851 253.708 293.638C264.127 285.412 286.253 285.412 297.573 293.51C299.76 294.924 302.075 296.208 302.847 296.208C305.549 296.208 304.262 291.581 300.146 286.697C294.743 280.013 285.096 275.644 275.962 275.644C271.202 275.644 266.7 276.672 262.327 278.728V278.729V278.729Z" fill="#533824"/>
<path fill-rule="evenodd" clip-rule="evenodd" d="M411.546 278.729C404.729 281.942 396.882 290.039 396.882 293.895C396.882 296.851 398.94 296.851 402.928 293.638C413.347 285.412 435.474 285.412 446.794 293.51C448.98 294.924 451.296 296.208 452.068 296.208C454.769 296.208 453.483 291.581 449.366 286.697C443.964 280.013 434.316 275.644 425.182 275.644C420.423 275.644 415.921 276.672 411.547 278.728L411.546 278.729V278.729Z" fill="#533824"/>
<path fill-rule="evenodd" clip-rule="evenodd" d="M320.6 340.167C322.015 345.693 326.131 350.064 333.335 353.534C339.124 356.362 342.082 357.005 350.573 357.005C359.062 357.005 362.021 356.362 367.81 353.534C375.014 350.064 379.13 345.694 380.545 340.167L381.188 337.339H350.573H319.956L320.6 340.167V340.167Z" fill="#AF754C"/>
<path fill-rule="evenodd" clip-rule="evenodd" d="M200.838 246.595C201.353 248.009 199.681 249.423 194.664 251.994C184.28 257.18 183.37 258.26 183.343 266.383V266.776C183.343 277.701 185.016 280.527 192.219 281.557C199.552 282.584 204.183 284.255 205.47 286.312C205.984 287.211 206.499 291.325 206.499 295.565C206.499 304.692 209.328 317.545 212.802 324.228C222.579 343.251 248.048 352.89 278.921 349.292C294.101 347.363 302.977 344.408 312.625 337.981C327.033 328.342 333.721 316.003 334.75 296.595C335.522 284.769 335.522 284.769 339.382 283.484C344.399 281.685 356.877 281.685 362.023 283.484C366.009 284.898 366.009 284.898 366.009 294.024C366.009 304.563 368.711 317.16 372.313 324.23C382.089 343.251 407.56 352.89 438.304 349.292C453.612 347.365 462.488 344.408 472.136 337.982C486.543 328.343 493.233 315.618 494.519 295.695C495.419 282.584 494.777 283.228 508.927 281.428C516.13 280.529 517.803 277.701 517.803 266.646C517.803 257.907 516.387 256.237 504.424 251.095L497.22 248.009L486.028 244.541L477.796 242.741C473.294 241.842 467.505 241.069 465.06 240.941C462.488 240.941 456.057 238.627 449.625 235.415C438.947 230.145 438.433 230.016 425.827 230.016C411.419 230.016 401.257 232.973 393.023 239.4C390.579 241.327 385.434 243.769 381.832 244.668C378.101 245.569 371.155 248.011 366.395 250.067C353.918 255.337 347.486 255.08 331.535 248.653C324.589 245.827 318.028 243.512 317.128 243.512C316.226 243.512 313.268 241.713 310.567 239.528C302.077 232.844 292.557 230.016 277.892 230.016C265.415 230.016 264.643 230.273 253.581 235.544C246.119 239.142 240.33 240.941 236.857 240.941C234.026 241.069 227.852 241.842 223.221 242.869L200.838 246.595V246.595ZM303.748 263.177C319.184 268.19 323.943 275.001 324.072 292.224C324.201 301.351 323.688 304.307 321.243 309.319C312.754 326.67 288.569 336.44 259.882 334.253C237.886 332.455 226.565 326.285 220.52 312.661C216.66 303.792 216.146 282.584 219.747 276.029C223.092 269.86 229.525 265.619 240.072 262.791C248.306 260.606 252.808 260.349 273.389 260.606C291.141 260.99 298.86 261.634 303.748 263.177V263.177ZM463.259 263.177C478.696 268.19 483.455 275.001 483.585 292.224C483.713 301.351 483.198 304.307 480.754 309.319C472.264 326.67 448.079 336.44 419.393 334.253C397.396 332.455 386.076 326.285 380.03 312.661C376.17 303.792 375.657 282.584 379.258 276.029C382.603 269.86 389.035 265.619 399.583 262.791C407.816 260.606 412.318 260.349 432.9 260.606C450.652 260.99 458.37 261.634 463.259 263.177V263.177Z" fill="#090E16"/>
<path fill-rule="evenodd" clip-rule="evenodd" d="M314.682 391.836C316.355 402.504 324.459 413.43 334.493 418.57C341.825 422.427 355.332 423.198 363.051 420.242C374.628 415.743 384.662 403.661 386.463 391.836H314.682V391.836Z" fill="#3E291B"/>
<path fill-rule="evenodd" clip-rule="evenodd" d="M313.583 365.044C311.624 365.755 306.815 368.068 302.896 370.293C298.979 372.428 294.526 374.742 293.013 375.365C289.896 376.61 280.724 376.966 277.785 375.987C276.093 375.452 275.737 375.631 275.737 377.321C275.737 380.08 281.526 385.24 287.848 388.266C296.041 392.181 306.726 391.38 320.084 385.775C325.24 384.256 332.698 380.188 338.694 378.123C351.906 373.455 358.655 376.134 370.574 381.237L380.993 385.775C394.351 391.38 405.036 392.181 413.23 388.266C419.64 385.24 425.606 379.814 425.162 377.499C424.983 376.61 424.182 376.076 423.47 376.254C422.757 376.432 419.462 376.521 416.078 376.521C410.735 376.432 409.133 375.987 402.721 372.695C385.357 363.62 387.85 364.332 375.027 364.332C364.787 364.332 362.738 364.687 357.039 366.734L350.538 369.047L344.127 366.734C336.291 363.975 319.638 363.086 313.583 365.044V365.044Z" fill="#2C1B18" fill-opacity="0.301961"/>
<path d="M395.958 639.777L404.219 633.067C406.133 631.512 408.947 631.801 410.503 633.714C412.06 635.627 411.769 638.438 409.855 639.993L405.857 643.241L434.882 667.676C436.796 669.231 437.086 672.042 435.53 673.955C434.647 675.04 433.359 675.603 432.061 675.603C431.071 675.603 430.074 675.275 429.246 674.602L395.958 646.704C394.915 645.856 394.309 644.584 394.309 643.241C394.309 641.897 394.915 640.625 395.958 639.777V639.777Z" fill="#7B4AE2"/>
<path d="M432.64 598.774C435.011 598.793 436.919 600.729 436.9 603.099L436.531 671.345C436.512 673.715 434.573 675.621 432.202 675.602C431.601 675.598 431.03 675.47 430.513 675.243C428.988 674.575 427.927 673.046 427.941 671.277L428.311 603.031C428.33 600.66 430.268 598.755 432.64 598.774V598.774Z" fill="#7B4AE2"/>
<path d="M451.491 645.719L454.542 643.241L443.676 634.412C441.762 632.857 441.472 630.047 443.028 628.134C444.584 626.221 447.398 625.931 449.312 627.486L464.441 639.777C465.484 640.625 466.09 641.897 466.09 643.241C466.09 644.584 465.484 645.856 464.441 646.704L457.128 652.645C456.299 653.318 455.303 653.646 454.313 653.646C453.014 653.646 451.726 653.082 450.844 651.998C449.288 650.085 449.578 647.274 451.491 645.719V645.719Z" fill="#C83267"/>
<path fill-rule="evenodd" clip-rule="evenodd" d="M261.81 515.711C223.863 519.404 189.389 533.537 160.702 557.092C136.018 577.275 129.131 593.316 111.059 616.162C147.881 654.333 197.397 686.676 251.393 704.539C287.411 716.38 311.981 720.2 350.572 720.2C389.164 720.2 413.733 716.38 449.753 704.539C504.226 687.133 550.112 658.608 591.475 617.665C563.145 581.128 551.485 557.182 505.838 534.682C486.67 525.133 464.159 518.257 446.922 516.474L438.803 515.744L438.417 515.735L437.531 521.823C433.672 550.853 397.269 572.244 351.859 572.244C306.45 572.244 270.689 551.108 266.057 521.696C265.157 515.839 264.77 515.328 261.813 515.711H261.81V515.711Z" fill="#090E16"/>
<path fill-rule="evenodd" clip-rule="evenodd" d="M285.35 463.974L284.814 463.806C283.346 463.345 290.552 460.057 293.105 458.836C300.61 455.25 310.398 455.983 322.634 461.118C327.357 462.51 334.189 466.235 339.683 468.128C351.785 472.404 357.967 469.95 368.886 465.276L378.43 461.118C390.666 455.983 400.454 455.25 407.96 458.836C410.476 460.024 412.961 461.566 414.854 463.214L415.423 463.71C393.521 480.403 323.314 488.702 285.35 463.974V463.974Z" fill="#2C1B18" fill-opacity="0.501961"/>
<path d="M425.858 620.108L430.158 616.614C431.155 615.804 432.62 615.955 433.43 616.951C434.24 617.947 434.089 619.41 433.092 620.22L431.011 621.911L446.12 634.633C447.116 635.442 447.267 636.906 446.457 637.901C445.998 638.467 445.327 638.76 444.652 638.76C444.136 638.76 443.617 638.589 443.186 638.239L425.858 623.714C425.316 623.272 425 622.61 425 621.911C425 621.211 425.316 620.549 425.858 620.108V620.108Z" fill="white"/>
<path d="M444.953 598.76C446.187 598.769 447.18 599.778 447.17 601.011L446.978 636.543C446.968 637.777 445.959 638.769 444.725 638.759C444.412 638.757 444.115 638.69 443.846 638.572C443.052 638.224 442.5 637.429 442.507 636.507L442.699 600.976C442.709 599.742 443.718 598.75 444.953 598.76V598.76Z" fill="white"/>
<path d="M454.766 623.201L456.354 621.911L450.698 617.314C449.701 616.505 449.551 615.041 450.36 614.046C451.17 613.05 452.635 612.899 453.632 613.708L461.507 620.108C462.05 620.549 462.365 621.211 462.365 621.911C462.365 622.61 462.05 623.272 461.507 623.714L457.7 626.807C457.269 627.157 456.75 627.328 456.234 627.328C455.558 627.328 454.888 627.035 454.429 626.47C453.619 625.474 453.77 624.011 454.766 623.201Z" fill="#7B4AE2"/>
</g>
<defs>
<filter id="filter0_d_21_4106" x="541" y="278" width="180" height="180" filterUnits="userSpaceOnUse" color-interpolation-filters="sRGB">
<feFlood flood-opacity="0" result="BackgroundImageFix"/>
<feColorMatrix in="SourceAlpha" type="matrix" values="0 0 0 0 0 0 0 0 0 0 0 0 0 0 0 0 0 0 127 0" result="hardAlpha"/>
<feOffset dy="4"/>
<feGaussianBlur stdDeviation="25"/>
<feComposite in2="hardAlpha" operator="out"/>
<feColorMatrix type="matrix" values="0 0 0 0 0 0 0 0 0 0 0 0 0 0 0 0 0 0 0.5 0"/>
<feBlend mode="normal" in2="BackgroundImageFix" result="effect1_dropShadow_21_4106"/>
<feBlend mode="normal" in="SourceGraphic" in2="effect1_dropShadow_21_4106" result="shape"/>
</filter>
<filter id="filter1_d_21_4106" x="0" y="176" width="180" height="180" filterUnits="userSpaceOnUse" color-interpolation-filters="sRGB">
<feFlood flood-opacity="0" result="BackgroundImageFix"/>
<feColorMatrix in="SourceAlpha" type="matrix" values="0 0 0 0 0 0 0 0 0 0 0 0 0 0 0 0 0 0 127 0" result="hardAlpha"/>
<feOffset dy="4"/>
<feGaussianBlur stdDeviation="25"/>
<feComposite in2="hardAlpha" operator="out"/>
<feColorMatrix type="matrix" values="0 0 0 0 0 0 0 0 0 0 0 0 0 0 0 0 0 0 0.5 0"/>
<feBlend mode="normal" in2="BackgroundImageFix" result="effect1_dropShadow_21_4106"/>
<feBlend mode="normal" in="SourceGraphic" in2="effect1_dropShadow_21_4106" result="shape"/>
</filter>
<filter id="filter2_d_21_4106" x="0" y="432" width="180" height="180" filterUnits="userSpaceOnUse" color-interpolation-filters="sRGB">
<feFlood flood-opacity="0" result="BackgroundImageFix"/>
<feColorMatrix in="SourceAlpha" type="matrix" values="0 0 0 0 0 0 0 0 0 0 0 0 0 0 0 0 0 0 127 0" result="hardAlpha"/>
<feOffset dy="4"/>
<feGaussianBlur stdDeviation="25"/>
<feComposite in2="hardAlpha" operator="out"/>
<feColorMatrix type="matrix" values="0 0 0 0 0 0 0 0 0 0 0 0 0 0 0 0 0 0 0.5 0"/>
<feBlend mode="normal" in2="BackgroundImageFix" result="effect1_dropShadow_21_4106"/>
<feBlend mode="normal" in="SourceGraphic" in2="effect1_dropShadow_21_4106" result="shape"/>
</filter>
<filter id="filter3_f_21_4106" x="5" y="0" width="670" height="670" filterUnits="userSpaceOnUse" color-interpolation-filters="sRGB">
<feFlood flood-opacity="0" result="BackgroundImageFix"/>
<feBlend mode="normal" in="SourceGraphic" in2="BackgroundImageFix" result="shape"/>
<feGaussianBlur stdDeviation="25" result="effect1_foregroundBlur_21_4106"/>
</filter>
<filter id="filter4_i_21_4106" x="111.059" y="52" width="480.416" height="672.2" filterUnits="userSpaceOnUse" color-interpolation-filters="sRGB">
<feFlood flood-opacity="0" result="BackgroundImageFix"/>
<feBlend mode="normal" in="SourceGraphic" in2="BackgroundImageFix" result="shape"/>
<feColorMatrix in="SourceAlpha" type="matrix" values="0 0 0 0 0 0 0 0 0 0 0 0 0 0 0 0 0 0 127 0" result="hardAlpha"/>
<feOffset dy="4"/>
<feGaussianBlur stdDeviation="2"/>
<feComposite in2="hardAlpha" operator="arithmetic" k2="-1" k3="1"/>
<feColorMatrix type="matrix" values="0 0 0 0 0 0 0 0 0 0 0 0 0 0 0 0 0 0 0.25 0"/>
<feBlend mode="normal" in2="shape" result="effect1_innerShadow_21_4106"/>
</filter>
<clipPath id="clip0_21_4106">
<rect width="40" height="40" fill="white" transform="translate(611 344)"/>
</clipPath>
<clipPath id="clip1_21_4106">
<rect width="40" height="40" fill="white" transform="translate(70 498)"/>
</clipPath>
</defs>
</svg>
