<svg width="50" height="54" viewBox="0 0 50 54" fill="none" xmlns="http://www.w3.org/2000/svg">
<path d="M1.14857 28.5671L6.90267 23.8918C8.23614 22.8086 10.1961 23.0107 11.28 24.3428C12.3644 25.6754 12.1622 27.6341 10.8287 28.7173L8.0441 30.9799L28.2616 48.0039C29.5951 49.0871 29.7973 51.0458 28.7129 52.3779C28.0981 53.1343 27.2012 53.5263 26.2971 53.5263C25.6074 53.5263 24.9127 53.2982 24.3361 52.8294L1.14857 33.3926C0.422239 32.8022 0 31.916 0 30.9799C0 30.0438 0.422239 29.1581 1.14857 28.5671V28.5671Z" fill="white"/>
<path d="M26.6999 9.80624e-05C28.3517 0.0133325 29.6806 1.36224 29.6673 3.01349L29.4101 50.5603C29.3969 52.2115 28.0466 53.539 26.3948 53.5258C25.9761 53.5227 25.5788 53.4336 25.2182 53.2758C24.1562 52.8101 23.4171 51.7457 23.4268 50.5124L23.6846 2.96614C23.6978 1.31489 25.0476 -0.0131364 26.6999 9.80624e-05V9.80624e-05Z" fill="white"/>
<path d="M39.8314 32.7065L41.9564 30.9799L34.3875 24.8294C33.054 23.7463 32.8523 21.7875 33.9362 20.4555C35.0201 19.1223 36.9801 18.9208 38.3135 20.004L48.8514 28.5672C49.5782 29.1581 50 30.0438 50 30.9799C50 31.916 49.5782 32.8022 48.8514 33.3926L43.7574 37.532C43.1804 38.0008 42.4861 38.2288 41.7965 38.2288C40.8919 38.2288 39.9949 37.8369 39.3801 37.081C38.2962 35.7484 38.4984 33.7902 39.8314 32.7065Z" fill="#7B4AE2"/>
</svg>
